<svg width="2573" height="620" viewBox="0 0 2573 620" fill="none" xmlns="http://www.w3.org/2000/svg">
<path d="M194 490.5C167.667 490.5 143.5 486.167 121.5 477.5C99.5 468.5 80.3333 456 64 440C48 424 35.5 405 26.5 383C17.8333 361 13.5 336.667 13.5 310C13.5 283 17.8333 258.5 26.5 236.5C35.5 214.5 48 195.5 64 179.5C80.3333 163.167 99.5 150.667 121.5 142C143.5 133.333 167.667 129 194 129C220.667 129 245 133.5 267 142.5C289 151.167 307.833 164 323.5 181C339.5 198 351.5 218.833 359.5 243.5L254 280C250 265 242.667 253.333 232 245C221.333 236.667 208.333 232.5 193 232.5C183 232.5 173.833 234.5 165.5 238.5C157.167 242.5 150.167 248 144.5 255C138.833 262 134.5 270.167 131.5 279.5C128.5 288.833 127 299 127 310C127 321 128.5 331.167 131.5 340.5C134.5 349.833 138.833 358 144.5 365C150.5 372 157.5 377.5 165.5 381.5C173.833 385.167 183 387 193 387C208.333 387 221.333 382.833 232 374.5C242.667 365.833 250.167 354 254.5 339L359.5 375.5C351.5 400.167 339.667 421 324 438C308.333 455 289.5 468 267.5 477C245.5 486 221 490.5 194 490.5Z" fill="#E2DDD6"/>
<path d="M792 480V139.5H897.5L995.5 274C1005.83 287.333 1014.67 300.5 1022 313.5C1029.67 326.5 1037 339.667 1044 353L1012.5 357V139.5H1122V480H1016.5L920.5 349C910.833 335.667 902.167 322.5 894.5 309.5C886.833 296.167 879.333 283 872 270L901 262.5V480H792ZM1167.98 480V139.5H1273.48L1371.48 274C1381.81 287.333 1390.64 300.5 1397.98 313.5C1405.64 326.5 1412.98 339.667 1419.98 353L1388.48 357V139.5H1497.98V480H1392.48L1296.48 349C1286.81 335.667 1278.14 322.5 1270.48 309.5C1262.81 296.167 1255.31 283 1247.98 270L1276.98 262.5V480H1167.98ZM1543.95 480V139.5H1801.95V231.5H1652.95V266.5H1793.45V349H1652.95V388H1805.45V480H1543.95ZM2009.88 490.5C1983.54 490.5 1959.38 486.167 1937.38 477.5C1915.38 468.5 1896.21 456 1879.88 440C1863.88 424 1851.38 405 1842.38 383C1833.71 361 1829.38 336.667 1829.38 310C1829.38 283 1833.71 258.5 1842.38 236.5C1851.38 214.5 1863.88 195.5 1879.88 179.5C1896.21 163.167 1915.38 150.667 1937.38 142C1959.38 133.333 1983.54 129 2009.88 129C2036.54 129 2060.88 133.5 2082.88 142.5C2104.88 151.167 2123.71 164 2139.38 181C2155.38 198 2167.38 218.833 2175.38 243.5L2069.88 280C2065.88 265 2058.54 253.333 2047.88 245C2037.21 236.667 2024.21 232.5 2008.88 232.5C1998.88 232.5 1989.71 234.5 1981.38 238.5C1973.04 242.5 1966.04 248 1960.38 255C1954.71 262 1950.38 270.167 1947.38 279.5C1944.38 288.833 1942.88 299 1942.88 310C1942.88 321 1944.38 331.167 1947.38 340.5C1950.38 349.833 1954.71 358 1960.38 365C1966.38 372 1973.38 377.5 1981.38 381.5C1989.71 385.167 1998.88 387 2008.88 387C2024.21 387 2037.21 382.833 2047.88 374.5C2058.54 365.833 2066.04 354 2070.38 339L2175.38 375.5C2167.38 400.167 2155.54 421 2139.88 438C2124.21 455 2105.38 468 2083.38 477C2061.38 486 2036.88 490.5 2009.88 490.5ZM2269.76 480V238.5H2183.26V139.5H2465.76V238.5H2379.26V480H2269.76ZM2499.23 485C2487.56 485 2477.23 482.667 2468.23 478C2459.23 473 2452.06 466.167 2446.73 457.5C2441.73 448.833 2439.23 438.667 2439.23 427C2439.23 410 2444.89 396.167 2456.23 385.5C2467.56 374.833 2481.89 369.5 2499.23 369.5C2510.89 369.5 2521.23 372 2530.23 377C2539.23 381.667 2546.23 388.333 2551.23 397C2556.56 405.333 2559.23 415.333 2559.23 427C2559.23 444.333 2553.56 458.333 2542.23 469C2531.23 479.667 2516.89 485 2499.23 485Z" fill="#E2DDD6"/>
<path d="M398 139H697.703C720.51 139 739 157.49 739 180.297V480H439.297C416.49 480 398 461.51 398 438.703V139Z" fill="#3DC5E3"/>
</svg>
