<svg width="2472" height="620" viewBox="0 0 2472 620" fill="none" xmlns="http://www.w3.org/2000/svg">
<path d="M689 140H988.703C1011.51 140 1030 158.49 1030 181.297V481H730.297C707.49 481 689 462.51 689 439.703V140Z" fill="#F6E389"/>
<path d="M23 480V139.5H281V231.5H132V266.5H272.5V349H132V388H284.5V480H23ZM323.781 480V139.5H475.281C508.948 139.5 538.448 146.333 563.781 160C589.448 173.333 609.448 192.833 623.781 218.5C638.115 243.833 645.281 274.333 645.281 310C645.281 345.667 638.115 376.167 623.781 401.5C609.448 426.833 589.615 446.333 564.281 460C538.948 473.333 509.281 480 475.281 480H323.781ZM432.781 383.5H473.281C492.281 383.5 506.948 376.667 517.281 363C527.948 349 533.281 331.333 533.281 310C533.281 288.333 527.781 270.667 516.781 257C506.115 243 491.615 236 473.281 236H432.781V383.5Z" fill="#E2DDD6"/>
<path d="M1254 490.5C1227.67 490.5 1203.5 486.167 1181.5 477.5C1159.5 468.5 1140.33 456 1124 440C1108 424 1095.5 405 1086.5 383C1077.83 361 1073.5 336.667 1073.5 310C1073.5 283 1077.83 258.5 1086.5 236.5C1095.5 214.5 1108 195.5 1124 179.5C1140.33 163.167 1159.5 150.667 1181.5 142C1203.5 133.333 1227.67 129 1254 129C1280.67 129 1305 133.5 1327 142.5C1349 151.167 1367.83 164 1383.5 181C1399.5 198 1411.5 218.833 1419.5 243.5L1314 280C1310 265 1302.67 253.333 1292 245C1281.33 236.667 1268.33 232.5 1253 232.5C1243 232.5 1233.83 234.5 1225.5 238.5C1217.17 242.5 1210.17 248 1204.5 255C1198.83 262 1194.5 270.167 1191.5 279.5C1188.5 288.833 1187 299 1187 310C1187 321 1188.5 331.167 1191.5 340.5C1194.5 349.833 1198.83 358 1204.5 365C1210.5 372 1217.5 377.5 1225.5 381.5C1233.83 385.167 1243 387 1253 387C1268.33 387 1281.33 382.833 1292 374.5C1302.67 365.833 1310.17 354 1314.5 339L1419.5 375.5C1411.5 400.167 1399.67 421 1384 438C1368.33 455 1349.5 468 1327.5 477C1305.5 486 1281 490.5 1254 490.5ZM1406.7 480L1537.7 139.5H1640.7L1771.2 480H1651.2L1584.2 254L1592.7 254.5L1518.2 480H1406.7ZM1492.2 435V349H1675.2V435H1492.2ZM1820.53 480V238.5H1734.03V139.5H2016.53V238.5H1930.03V480H1820.53ZM2047.84 480V139.5H2305.84V231.5H2156.84V266.5H2297.34V349H2156.84V388H2309.34V480H2047.84ZM2398.63 485C2386.96 485 2376.63 482.667 2367.63 478C2358.63 473 2351.46 466.167 2346.13 457.5C2341.13 448.833 2338.63 438.667 2338.63 427C2338.63 410 2344.29 396.167 2355.63 385.5C2366.96 374.833 2381.29 369.5 2398.63 369.5C2410.29 369.5 2420.63 372 2429.63 377C2438.63 381.667 2445.63 388.333 2450.62 397C2455.96 405.333 2458.63 415.333 2458.63 427C2458.63 444.333 2452.96 458.333 2441.63 469C2430.63 479.667 2416.29 485 2398.63 485Z" fill="#E2DDD6"/>
</svg>
