<svg width="2120" height="620" viewBox="0 0 2120 620" fill="none" xmlns="http://www.w3.org/2000/svg">
<path d="M23 480V139.5H132V480H23Z" fill="#E2DDD6"/>
<path d="M709.5 490.5C689.5 490.5 670.667 487.833 653 482.5C635.333 477.5 619.333 470 605 460C591 450 579.167 437.5 569.5 422.5L641.5 356C650.5 367.667 661.667 377.5 675 385.5C688.333 393.5 702.333 397.5 717 397.5C725 397.5 731.5 396 736.5 393C741.833 389.667 744.5 385.333 744.5 380C744.5 376 743.167 372.833 740.5 370.5C737.833 367.833 734.5 365.833 730.5 364.5C726.5 362.833 722.5 361.5 718.5 360.5C698.167 356.167 679.833 351 663.5 345C647.167 338.667 633 331 621 322C609.333 313 600.333 302 594 289C587.667 275.667 584.5 260.167 584.5 242.5C584.5 219.167 590.5 199.167 602.5 182.5C614.833 165.5 631.167 152.333 651.5 143C671.833 133.667 694 129 718 129C744 129 767.667 133.833 789 143.5C810.667 153.167 828.833 167.5 843.5 186.5L769.5 254.5C760.167 243.833 751 235.667 742 230C733 224.333 723.667 221.5 714 221.5C709.333 221.5 705 222.333 701 224C697 225.333 693.833 227.5 691.5 230.5C689.167 233.167 688 236.333 688 240C688 244 689.167 247.333 691.5 250C694.167 252.333 697.333 254.167 701 255.5C705 256.5 709 257.5 713 258.5C732.333 262.833 750.167 267.833 766.5 273.5C783.167 279.167 797.5 286.333 809.5 295C821.833 303.333 831.333 314 838 327C845 340 848.5 356.5 848.5 376.5C848.5 399.5 842.667 419.667 831 437C819.333 454 803 467.167 782 476.5C761.333 485.833 737.167 490.5 709.5 490.5ZM885.223 480V139.5H1038.72C1063.06 139.5 1084.89 144.667 1104.22 155C1123.89 165.333 1139.39 179.833 1150.72 198.5C1162.39 216.833 1168.22 238.5 1168.22 263.5C1168.22 290.167 1162.56 313.167 1151.22 332.5C1139.89 351.833 1124.06 366.667 1103.72 377C1083.72 387.333 1060.89 392.5 1035.22 392.5H994.223V480H885.223ZM993.723 301.5H1024.22C1031.22 301.5 1037.22 300.167 1042.22 297.5C1047.22 294.833 1051.22 291 1054.22 286C1057.22 280.667 1058.72 274.5 1058.72 267.5C1058.72 260.167 1057.22 254.167 1054.22 249.5C1051.56 244.833 1047.56 241.333 1042.22 239C1037.22 236.333 1031.06 235 1023.72 235H993.723V301.5ZM1198.21 480V139.5H1307.21V480H1198.21ZM1353.48 480V139.5H1517.48C1546.82 139.5 1570.48 144.5 1588.48 154.5C1606.48 164.5 1619.65 178.167 1627.98 195.5C1636.65 212.5 1640.98 231.833 1640.98 253.5C1640.98 273.5 1636.82 291.5 1628.48 307.5C1620.15 323.5 1608.32 336.167 1592.98 345.5C1577.98 354.833 1559.98 359.5 1538.98 359.5H1518.98L1571.48 332.5L1668.98 479V480H1535.98L1462.48 355.5V480H1353.48ZM1499.98 231.5H1461.98V290.5H1499.48C1510.15 290.5 1518.15 287.5 1523.48 281.5C1528.82 275.167 1531.48 268 1531.48 260C1531.48 254.667 1530.32 249.833 1527.98 245.5C1525.65 241.167 1521.98 237.833 1516.98 235.5C1512.32 232.833 1506.65 231.5 1499.98 231.5ZM1695.28 480V139.5H1953.28V231.5H1804.28V266.5H1944.78V349H1804.28V388H1956.78V480H1695.28ZM2046.06 485C2034.4 485 2024.06 482.667 2015.06 478C2006.06 473 1998.9 466.167 1993.56 457.5C1988.56 448.833 1986.06 438.667 1986.06 427C1986.06 410 1991.73 396.167 2003.06 385.5C2014.4 374.833 2028.73 369.5 2046.06 369.5C2057.73 369.5 2068.06 372 2077.06 377C2086.06 381.667 2093.06 388.333 2098.06 397C2103.4 405.333 2106.06 415.333 2106.06 427C2106.06 444.333 2100.4 458.333 2089.06 469C2078.06 479.667 2063.73 485 2046.06 485Z" fill="#E2DDD6"/>
<path d="M187 140H486.703C509.51 140 528 158.49 528 181.297V481H228.297C205.49 481 187 462.51 187 439.703V140Z" fill="#F84458"/>
</svg>
